# xmcd CD database file
#
# Track frame offsets:
#	150
#	11043
#	25045
#	32921
#	45003
#	54976
#	66560
#	82021
#	92743
#	108018
#	117127
#	131049
#	145076
#	159244
#	171552
#	190857
#	203240
#	214277
#	226774
#	238806
#	250557
#	262548
#	278360
#	290374
#
# Disc length: 4041 seconds
#
# Revision: 0
# Processed by: cddbd v1.5.1PL0 Copyright (c) Steve Scherf et al.
# Submitted via: CDex 1.51
#
DISCID=3f0fc718
DTITLE=Anita O'Day - Complete Edition - Volume 4 (1944)
DYEAR=1944
DGENRE=Jazz
TTITLE0=Ain't Misbehavin'
TTITLE1=Penthouse Serenade (When We're Alone)
TTITLE2=Lonesome Road
TTITLE3=I Can't Give You Anything But Love
TTITLE4=Rosetta
TTITLE5=Ride On
TTITLE6=Build It up and Tear It Down
TTITLE7=Salt Lake City Blues (I Lost My Sugar in Salt Lake City)
TTITLE8=You Betcha!
TTITLE9=In a Little Spanish Town
TTITLE10=I'm Going Mad for a Pad
TTITLE11=And Her Tears Flowed Like Wine
TTITLE12=And Her Tears Flowed Like Wine
TTITLE13=The Lady in Red
TTITLE14=Are You Livin', Old Man? [Never Issued]
TTITLE15=Tabby the Cat [Never Issued]
TTITLE16=Salt Lake City Blues (I Lost My Sugar in Salt Lake City) [Never Issued]
TTITLE17=Gotta' Be Gettin'
TTITLE18=Tabby the Cat
TTITLE19=Gotta' Be Gettin' [Never Issued]
TTITLE20=Gotta' Be Gettin'
TTITLE21=Wish You Were Waitin' for Me
TTITLE22=And Her Tears Flowed Like Wine
TTITLE23=The Lady in Red [Never Issued]
EXTD=YEAR: 1944
EXTT0=
EXTT1=
EXTT2=
EXTT3=
EXTT4=
EXTT5=
EXTT6=
EXTT7=
EXTT8=
EXTT9=
EXTT10=
EXTT11=
EXTT12=
EXTT13=
EXTT14=
EXTT15=
EXTT16=
EXTT17=
EXTT18=
EXTT19=
EXTT20=
EXTT21=
EXTT22=
EXTT23=
PLAYORDER=
